<?xml version="1.0" encoding="UTF-8" standalone="no"?>
<svg
   xmlns:dc="http://purl.org/dc/elements/1.1/"
   xmlns:cc="http://creativecommons.org/ns#"
   xmlns:rdf="http://www.w3.org/1999/02/22-rdf-syntax-ns#"
   xmlns:svg="http://www.w3.org/2000/svg"
   xmlns="http://www.w3.org/2000/svg"
   viewBox="0 0 666.66669 666.66669"
   height="666.66669"
   width="666.66669"
   xml:space="preserve"
   id="svg2"
   version="1.1"><metadata
     id="metadata8"><rdf:RDF><cc:Work
         rdf:about=""><dc:format>image/svg+xml</dc:format><dc:type
           rdf:resource="http://purl.org/dc/dcmitype/StillImage" /></cc:Work></rdf:RDF></metadata><defs
     id="defs6" /><g
     transform="matrix(1.3333333,0,0,-1.3333333,0,666.66667)"
     id="g10"><g
       transform="scale(0.1)"
       id="g12"><path
         id="path14"
         style="fill:#ffffff;fill-opacity:1;fill-rule:nonzero;stroke:none"
         d="M 5000,0.0117188 H 0 V 5000.01 H 5000 V 0.0117188" /><path
         id="path16"
         style="fill:#d6bde2;fill-opacity:1;fill-rule:nonzero;stroke:none"
         d="m 3367.83,2698.97 c -6.89,0 -13.87,1.84 -20.19,5.69 l -733.92,446.86 c -11.58,7.05 -18.66,19.65 -18.66,33.21 0,52.41 -42.65,95.06 -95.05,95.06 -52.42,0 -95.06,-42.65 -95.06,-95.06 0,-13.56 -7.07,-26.16 -18.66,-33.21 l -733.92,-446.86 c -18.38,-11.17 -42.28,-5.36 -53.43,12.99 -11.18,18.34 -5.36,42.26 12.98,53.42 l 716.76,436.42 c 11.17,84.58 83.74,150.07 171.33,150.07 87.58,0 160.15,-65.49 171.32,-150.07 l 716.77,-436.42 c 18.33,-11.16 24.15,-35.08 12.96,-53.42 -7.31,-12.02 -20.11,-18.68 -33.23,-18.68" /><path
         id="path18"
         style="fill:none;stroke:#263961;stroke-width:20.48509979;stroke-linecap:round;stroke-linejoin:round;stroke-miterlimit:10;stroke-dasharray:none;stroke-opacity:1"
         d="m 3367.83,2698.97 c -6.89,0 -13.87,1.84 -20.19,5.69 l -733.92,446.86 c -11.58,7.05 -18.66,19.65 -18.66,33.21 0,52.41 -42.65,95.06 -95.05,95.06 -52.42,0 -95.06,-42.65 -95.06,-95.06 0,-13.56 -7.07,-26.16 -18.66,-33.21 l -733.92,-446.86 c -18.38,-11.17 -42.28,-5.36 -53.43,12.99 -11.18,18.34 -5.36,42.26 12.98,53.42 l 716.76,436.42 c 11.17,84.58 83.74,150.07 171.33,150.07 87.58,0 160.15,-65.49 171.32,-150.07 l 716.77,-436.42 c 18.33,-11.16 24.15,-35.08 12.96,-53.42 -7.31,-12.02 -20.11,-18.68 -33.23,-18.68 z" /><path
         id="path20"
         style="fill:#263961;fill-opacity:1;fill-rule:nonzero;stroke:none"
         d="m 1728.39,2677.55 c 1.15,-0.13 24.06,-2.43 61.21,-2.43 155.41,0 559.74,40.32 658.91,449.03 1.13,4.69 -1.74,9.41 -6.44,10.55 -4.7,1.16 -9.4,-1.74 -10.55,-6.44 -119.23,-491.36 -695.42,-433.99 -701.22,-433.33 -4.72,0.39 -9.1,-2.95 -9.64,-7.73 -0.52,-4.81 2.94,-9.12 7.73,-9.65" /><path
         id="path22"
         style="fill:#263961;fill-opacity:1;fill-rule:nonzero;stroke:none"
         d="m 1794.11,2736.08 c 0.31,-0.02 2.99,-0.1 7.73,-0.1 59.38,0 442.9,13.71 586.25,358.01 1.86,4.47 -0.25,9.58 -4.7,11.43 -4.42,1.86 -9.59,-0.24 -11.45,-4.7 -150.04,-360.39 -572.91,-347.27 -577.11,-347.17 -4.93,0.38 -8.9,-3.54 -9.1,-8.37 -0.19,-4.83 3.56,-8.9 8.38,-9.1" /><path
         id="path24"
         style="fill:#263961;fill-opacity:1;fill-rule:nonzero;stroke:none"
         d="m 1859.56,2794.67 c 0.31,0 0.62,0.02 0.92,0.05 2.79,0.29 280.25,32.06 466.4,268.39 2.99,3.79 2.35,9.28 -1.44,12.27 -3.81,3 -9.32,2.34 -12.29,-1.44 -181.44,-230.38 -451.79,-261.56 -454.51,-261.84 -4.78,-0.5 -8.27,-4.81 -7.76,-9.61 0.48,-4.49 4.27,-7.82 8.68,-7.82" /><path
         id="path26"
         style="fill:#263961;fill-opacity:1;fill-rule:nonzero;stroke:none"
         d="m 3334.46,2636.28 c -3.57,-0.55 -364.63,-51.96 -608.89,130.17 -119.92,89.41 -192.88,220.56 -216.91,389.82 -0.02,0.18 -0.13,0.32 -0.17,0.49 -0.12,0.59 -0.36,1.12 -0.59,1.67 -0.21,0.52 -0.41,1.02 -0.71,1.48 -0.31,0.43 -0.68,0.77 -1.05,1.14 -0.43,0.44 -0.82,0.87 -1.33,1.22 -0.39,0.26 -0.84,0.41 -1.27,0.6 -0.6,0.29 -1.21,0.54 -1.87,0.68 -0.16,0.01 -0.27,0.12 -0.43,0.15 -0.39,0.05 -0.74,-0.09 -1.13,-0.08 -0.45,0 -0.87,0.14 -1.33,0.08 -0.2,-0.03 -0.34,-0.15 -0.54,-0.18 -0.52,-0.12 -0.98,-0.34 -1.47,-0.53 -0.58,-0.25 -1.15,-0.46 -1.66,-0.81 -0.39,-0.28 -0.71,-0.63 -1.06,-0.95 -0.45,-0.45 -0.9,-0.86 -1.24,-1.38 -0.28,-0.42 -0.46,-0.89 -0.66,-1.35 -0.27,-0.59 -0.5,-1.13 -0.63,-1.74 -0.03,-0.17 -0.14,-0.31 -0.16,-0.49 -24.03,-169.26 -96.99,-300.41 -216.92,-389.82 -244.25,-182.15 -605.29,-130.71 -608.89,-130.17 -4.84,0.66 -9.21,-2.59 -9.94,-7.34 -0.72,-4.79 2.57,-9.23 7.35,-9.96 1.34,-0.19 50.55,-7.23 124.7,-7.23 130.34,0 337.7,21.77 497.15,140.61 111.96,83.45 184.11,201.97 215.2,352.52 31.09,-150.55 103.23,-269.07 215.19,-352.52 159.48,-118.85 366.8,-140.61 497.15,-140.61 74.13,0 123.36,7.04 124.7,7.23 4.78,0.73 8.06,5.17 7.35,9.96 -0.7,4.75 -5.05,8 -9.94,7.34" /><path
         id="path28"
         style="fill:#263961;fill-opacity:1;fill-rule:nonzero;stroke:none"
         d="m 3210.41,2675.12 c 37.12,0 60.06,2.3 61.2,2.43 4.81,0.53 8.27,4.84 7.75,9.65 -0.54,4.79 -4.87,8.25 -9.65,7.73 -5.83,-0.67 -581.93,-58.27 -701.21,433.33 -1.16,4.7 -5.86,7.63 -10.56,6.44 -4.69,-1.14 -7.57,-5.86 -6.44,-10.55 99.18,-408.74 503.54,-449.03 658.91,-449.03" /><path
         id="path30"
         style="fill:#263961;fill-opacity:1;fill-rule:nonzero;stroke:none"
         d="m 3198.18,2735.98 c 4.72,0 7.4,0.08 7.73,0.1 4.81,0.2 8.55,4.27 8.37,9.1 -0.21,4.82 -4.34,8.54 -9.09,8.37 -4.28,-0.16 -427.1,-13.19 -577.13,347.17 -1.84,4.46 -6.96,6.56 -11.43,4.7 -4.46,-1.85 -6.57,-6.96 -4.71,-11.43 143.36,-344.32 526.91,-358.01 586.26,-358.01" /><path
         id="path32"
         style="fill:#263961;fill-opacity:1;fill-rule:nonzero;stroke:none"
         d="m 3139.53,2794.72 c 0.3,-0.03 0.62,-0.05 0.91,-0.05 4.42,0 8.23,3.34 8.69,7.83 0.51,4.8 -2.96,9.1 -7.77,9.6 -2.72,0.28 -272.86,31.23 -454.5,261.84 -2.98,3.78 -8.48,4.44 -12.28,1.44 -3.8,-2.99 -4.44,-8.48 -1.45,-12.27 186.15,-236.33 463.62,-268.1 466.4,-268.39" /><path
         id="path34"
         style="fill:#263961;fill-opacity:1;fill-rule:nonzero;stroke:none"
         d="m 3302.71,1794.23 v 825.93 c 0,0 -709.41,-89.53 -802.7,536.11 -62.17,-605.8 -802.72,-536.11 -802.72,-536.11 v -825.93" /><g
         transform="scale(10)"
         id="g36"><text
           id="text40"
           style="font-variant:normal;font-weight:600;font-size:16.88680077px;font-family:Poppins;-inkscape-font-specification:Poppins-SemiBold;writing-mode:lr-tb;fill:#ffffff;fill-opacity:1;fill-rule:nonzero;stroke:none"
           transform="matrix(1,0,0,-1,231.353,256.597)"><tspan
             id="tspan38"
             y="0"
             x="0 12.2764 26.917002">THE</tspan></text>
<text
           id="text44"
           style="font-variant:normal;font-weight:900;font-size:45px;font-family:Poppins;-inkscape-font-specification:Poppins-Black;writing-mode:lr-tb;fill:#ffffff;fill-opacity:1;fill-rule:nonzero;stroke:none"
           transform="matrix(1,0,0,-1,179.5378,214.4322)"><tspan
             id="tspan42"
             y="0"
             x="0 30.780001 66.239487 101.69949">BOOK</tspan></text>
<text
           id="text48"
           style="font-variant:normal;font-weight:600;font-size:35.01779938px;font-family:Poppins;-inkscape-font-specification:Poppins-SemiBold;writing-mode:lr-tb;fill:#ffffff;fill-opacity:1;fill-rule:nonzero;stroke:none"
           transform="matrix(1,0,0,-1,178.39092,185.0131)"><tspan
             id="tspan46"
             y="0"
             x="0 30.360432 63.10162 92.761841 119.33997">HOUSE</tspan></text>
</g></g></g></svg>